Coordinates
version=1
nRows=31
nColumns=38
inDegrees=no

Units are S.I. units (second, meters, Newtons, ...)
If the header above contains a line with 'inDegrees', this indicates whether rotational values are in degrees (yes) or radians (no).

endheader
time	pelvis_tilt	pelvis_list	pelvis_rotation	pelvis_tx	pelvis_ty	pelvis_tz	hip_flexion_r	hip_adduction_r	hip_rotation_r	knee_angle_r	ankle_angle_r	subtalar_angle_r	mtp_angle_r	hip_flexion_l	hip_adduction_l	hip_rotation_l	knee_angle_l	ankle_angle_l	subtalar_angle_l	mtp_angle_l	lumbar_extension	lumbar_bending	lumbar_rotation	arm_flex_r	arm_add_r	arm_rot_r	elbow_flex_r	pro_sup_r	wrist_flex_r	wrist_dev_r	arm_flex_l	arm_add_l	arm_rot_l	elbow_flex_l	pro_sup_l	wrist_flex_l	wrist_dev_l
2.86	-1.10994	1.50388	-0.0127239	0.826055	0.217806	0.961218	0.0177239	0.0995797	-0.0116951	0.10438	0.095457	0	0	0.488635	-0.0325381	0.185324	1.31643	0.172772	0	0	-0.0122704	0.107663	0.133284	-0.0290208	-0.109892	-0.293879	1.34638	1.5708	0	0	-0.328759	-0.207961	0.296869	0.74207	0.86488	0	0
2.87	-1.08334	1.50678	-0.0503399	0.825861	0.212539	0.961744	0.00251655	0.0981656	-0.000236548	0.0901614	0.0944451	0	0	0.497569	-0.0259575	0.1792	1.29241	0.17421	0	0	-0.0156212	0.104489	0.135593	-0.0341983	-0.109302	-0.294156	1.35163	1.5708	0	0	-0.321532	-0.207227	0.3013	0.740597	0.852367	0	0
2.88	-1.05689	1.50983	-0.0881704	0.825647	0.207306	0.962215	-0.0115562	0.0962757	0.0115984	0.0776232	0.0944069	0	0	0.505471	-0.0201567	0.172927	1.26563	0.175637	0	0	-0.0189997	0.10091	0.137603	-0.0391426	-0.109337	-0.292663	1.35706	1.5708	0	0	-0.314218	-0.207111	0.306045	0.739538	0.833789	0	0
2.89	-1.0419	1.51309	-0.114763	0.825438	0.202171	0.962563	-0.0228691	0.0938323	0.0222695	0.0683287	0.096064	0	0	0.513207	-0.01539	0.166068	1.23577	0.177039	0	0	-0.0216476	0.0970874	0.139383	-0.0442422	-0.109656	-0.290643	1.36283	1.5708	0	0	-0.306556	-0.206636	0.309197	0.736999	0.812965	0	0
2.9	-1.0452	1.51588	-0.122752	0.825301	0.197154	0.96277	-0.0327434	0.0916632	0.0328782	0.0590574	0.0970186	0	0	0.521382	-0.0122867	0.159038	1.20333	0.175739	0	0	-0.0229871	0.0938988	0.140967	-0.0497267	-0.110226	-0.288884	1.36882	1.5708	0	0	-0.29864	-0.206301	0.312244	0.73354	0.791799	0	0
2.91	-1.04995	1.51837	-0.129989	0.825161	0.192118	0.96295	-0.0426203	0.0895795	0.0444997	0.0495902	0.0977532	0	0	0.528593	-0.0115546	0.149199	1.16783	0.171723	0	0	-0.0240616	0.0908483	0.143168	-0.0548138	-0.110986	-0.286991	1.37424	1.5708	0	0	-0.289823	-0.206316	0.317155	0.730822	0.773411	0	0
2.92	-1.06344	1.52065	-0.128651	0.825043	0.187116	0.963044	-0.0517173	0.0875619	0.0560712	0.0407534	0.0985913	0	0	0.534961	-0.0125265	0.138209	1.13032	0.167664	0	0	-0.0247189	0.0880115	0.145258	-0.0596438	-0.111749	-0.284799	1.37947	1.5708	0	0	-0.281066	-0.206211	0.320474	0.72742	0.752003	0	0
2.93	-1.12372	1.52285	-0.081405	0.825081	0.182021	0.963118	-0.0580555	0.0854516	0.0676407	0.0329308	0.0986715	0	0	0.541788	-0.0147882	0.126521	1.09043	0.163963	0	0	-0.0242179	0.0880659	0.143112	-0.0624993	-0.112759	-0.279202	1.38556	1.5708	0	0	-0.281395	-0.189823	0.134543	0.719959	0.261042	0	0
2.94	-1.08948	1.52458	-0.127655	0.824969	0.177076	0.963029	-0.0695773	0.0833808	0.0781046	0.0244331	0.0996504	0	0	0.543518	-0.0179277	0.114706	1.05038	0.162185	0	0	-0.0262267	0.082842	0.149169	-0.0699201	-0.113024	-0.282352	1.39081	1.5708	0	0	-0.265292	-0.20693	0.326	0.725935	0.708094	0	0
2.95	-1.11114	1.52646	-0.119243	0.824995	0.171994	0.962913	-0.0777651	0.0810919	0.0897359	0.0168788	0.100078	0	0	0.546339	-0.0221813	0.101657	1.00768	0.159699	0	0	-0.0264414	0.0803114	0.150844	-0.0752616	-0.114379	-0.27956	1.39636	1.5708	0	0	-0.258443	-0.205656	0.322337	0.721847	0.714492	0	0
2.96	-1.13601	1.52816	-0.107591	0.82512	0.16685	0.962719	-0.0857878	0.0787703	0.101708	0.00958941	0.100598	0	0	0.548477	-0.0270821	0.0884008	0.964255	0.156658	0	0	-0.0262575	0.0778362	0.151887	-0.080714	-0.116262	-0.275674	1.40206	1.5708	0	0	-0.252006	-0.205045	0.31944	0.719917	0.712705	0	0
2.97	-1.17282	1.52979	-0.0836411	0.82541	0.161702	0.962446	-0.092397	0.0763694	0.112163	0.00453768	0.101836	0	0	0.550459	-0.0323749	0.0747455	0.920649	0.15235	0	0	-0.0254228	0.0754262	0.151702	-0.086005	-0.118472	-0.270898	1.40776	1.5708	0	0	-0.246329	-0.204193	0.314395	0.718915	0.712875	0	0
2.98	-1.19692	1.53164	-0.0730779	0.825766	0.156417	0.962226	-0.0996809	0.0734009	0.124213	1.20925e-07	0.102107	0	0	0.550436	-0.0383382	0.0597637	0.876101	0.146677	0	0	-0.0250348	0.0726453	0.151646	-0.0914236	-0.120262	-0.266243	1.41342	1.5708	0	0	-0.241551	-0.203675	0.309447	0.718136	0.715058	0	0
2.99	-1.21702	1.5336	-0.06738	0.826092	0.151179	0.962001	-0.105701	0.0700998	0.135654	1.45951e-08	0.10407	0	0	0.549432	-0.0449943	0.0437698	0.830998	0.138423	0	0	-0.025244	0.0696219	0.151969	-0.096293	-0.121451	-0.262126	1.41914	1.5708	0	0	-0.235981	-0.203513	0.306599	0.715417	0.715536	0	0
3	-1.23872	1.53556	-0.0597808	0.826532	0.146149	0.961697	-0.110442	0.0665973	0.146678	0	0.1075	0	0	0.548416	-0.0515582	0.0283973	0.786086	0.127327	0	0	-0.0260068	0.06669	0.151619	-0.100552	-0.122587	-0.258241	1.42542	1.5708	0	0	-0.22934	-0.20394	0.305474	0.713565	0.714586	0	0
3.01	-1.24674	1.53756	-0.0647802	0.82725	0.140996	0.961412	-0.116615	0.0626622	0.156337	0	0.11108	0	0	0.54596	-0.0574512	0.0138182	0.740582	0.114686	0	0	-0.0266726	0.063595	0.150009	-0.105451	-0.123906	-0.253952	1.43177	1.5708	0	0	-0.224756	-0.203841	0.298462	0.71492	0.719189	0	0
3.02	-1.2536	1.53968	-0.0712144	0.828093	0.135734	0.961132	-0.123002	0.0583456	0.166476	0	0.114294	0	0	0.542307	-0.063319	-0.000724699	0.695008	0.102034	0	0	-0.0271352	0.060407	0.148716	-0.110997	-0.125308	-0.249524	1.43842	1.5708	0	0	-0.220188	-0.203824	0.291229	0.716199	0.727173	0	0
3.03	-1.27472	1.542	-0.0642393	0.829013	0.130406	0.960814	-0.128389	0.0537063	0.177958	0	0.116669	0	0	0.538004	-0.0690866	-0.0153321	0.649606	0.0908316	0	0	-0.0269817	0.0572229	0.147658	-0.116631	-0.126941	-0.244082	1.44513	1.5708	0	0	-0.215614	-0.203571	0.285298	0.71425	0.734453	0	0
3.04	-1.42614	1.54619	0.0772723	0.830091	0.125526	0.960497	-0.12951	0.04736	0.185052	0	0.119189	0	0	0.544359	-0.0716527	-0.0189696	0.61174	0.0738347	0	0	-0.0235978	0.0510472	0.141405	-0.120471	-0.12671	-0.237832	1.44809	1.5708	0	0	-0.211866	-0.204039	0.277714	0.711659	0.737676	0	0
3.05	-1.33051	1.54699	-0.0356418	0.831359	0.119302	0.960093	-0.1408	0.0430317	0.198179	0	0.121851	0	0	0.526646	-0.0786485	-0.0375916	0.559976	0.0759157	0	0	-0.0245871	0.0502106	0.141786	-0.127858	-0.129663	-0.231105	1.45691	1.5708	0	0	-0.214075	-0.203612	0.271199	0.715441	0.731751	0	0
3.06	-1.5113	1.55131	0.135982	0.832588	0.114113	0.959742	-0.142904	0.0362054	0.203862	0	0.124657	0	0	0.530341	-0.0808228	-0.0357942	0.523354	0.0637123	0	0	-0.021675	0.0442895	0.130806	-0.130151	-0.127759	-0.223423	1.46013	1.5708	0	0	-0.182567	-0.179906	0.0189952	0.626047	1.5708	0	0
3.07	-1.43259	1.55138	0.0404222	0.834116	0.107665	0.959161	-0.15292	0.0323856	0.216414	0	0.12764	0	0	0.513761	-0.0878808	-0.0472483	0.474267	0.0655952	0	0	-0.021279	0.044412	0.129294	-0.1381	-0.130219	-0.218045	1.46959	1.5708	0	0	-0.185586	-0.178405	0.00665276	0.629656	1.5708	0	0
3.08	-1.50025	1.55319	0.0939285	0.835652	0.101706	0.958625	-0.158263	0.0268765	0.226234	0	0.131864	0	0	0.506194	-0.0928817	-0.0495935	0.43249	0.0610348	0	0	-0.0189144	0.041562	0.12465	-0.14448	-0.130818	-0.21347	1.47604	1.5708	0	0	-0.18781	-0.178383	-0.00521768	0.635025	1.5708	0	0
3.09	-1.5513	1.55442	0.130586	0.837361	0.0957036	0.958087	-0.163698	0.0216641	0.236116	0	0.136398	0	0	0.49773	-0.0982932	-0.0484573	0.39208	0.0561308	0	0	-0.0159562	0.0384632	0.122132	-0.15241	-0.13146	-0.211202	1.48153	1.5708	0	0	-0.218491	-0.19627	0.196221	0.717522	0.820862	0	0
3.1	-1.60153	1.55634	0.164553	0.838922	0.0896784	0.957552	-0.168673	0.0154827	0.248092	0	0.140725	0	0	0.488403	-0.104265	-0.0471752	0.353427	0.0507597	0	0	-0.0141877	0.0355699	0.119215	-0.158852	-0.132109	-0.206632	1.48732	1.5708	0	0	-0.220417	-0.19703	0.189161	0.720277	0.809642	0	0
3.11	-1.69554	1.55842	0.241181	0.840547	0.0835804	0.956961	-0.172264	0.00883699	0.261466	0	0.144719	0	0	0.47924	-0.110556	-0.0445901	0.317229	0.0454624	0	0	-0.0117841	0.0324529	0.116945	-0.165571	-0.132217	-0.202497	1.49273	1.5708	0	0	-0.22305	-0.196392	0.178832	0.720559	0.809785	0	0
3.12	-1.83074	1.56016	0.358692	0.842268	0.0773934	0.956327	-0.174604	0.00244374	0.274738	0	0.148394	0	0	0.470436	-0.117324	-0.0399467	0.284177	0.0399882	0	0	-0.00881422	0.0294742	0.114259	-0.172305	-0.132417	-0.197519	1.49761	1.5708	0	0	-0.22646	-0.19511	0.166086	0.720456	0.815256	0	0
3.13	-1.91849	1.56156	0.429585	0.844103	0.0711753	0.955725	-0.178628	-0.00362907	0.287629	7.49148e-08	0.150502	0	0	0.461554	-0.124905	-0.031319	0.254827	0.0343242	0	0	-0.0066113	0.0268474	0.11038	-0.178672	-0.133424	-0.190243	1.50188	1.5708	0	0	-0.229928	-0.194056	0.152765	0.720312	0.826102	0	0
3.14	-1.87072	1.56307	0.366487	0.846123	0.0650234	0.955163	-0.184296	-0.0091538	0.298993	0.000700403	0.151517	0	0	0.452812	-0.1327	-0.0196574	0.2302	0.0288092	0	0	-0.0060252	0.0246102	0.104913	-0.184534	-0.13451	-0.182142	1.50625	1.5708	0	0	-0.232464	-0.19301	0.13956	0.718856	0.842472	0	0
3.15	-1.87162	1.56515	0.350794	0.848212	0.0586555	0.954566	-0.188863	-0.0156554	0.310375	0.00418521	0.153074	0	0	0.444256	-0.140621	-0.00922181	0.209356	0.0246679	0	0	-0.00485042	0.0215811	0.100851	-0.191964	-0.1352	-0.176022	1.51143	1.5708	0	0	-0.23555	-0.192123	0.128848	0.71734	0.850043	0	0
3.16	-1.93606	1.56773	0.397363	0.850388	0.0521066	0.953962	-0.192475	-0.0230848	0.322034	0.00885476	0.155034	0	0	0.435847	-0.148716	-5.79253e-05	0.192979	0.0228377	0	0	-0.00323804	0.0181202	0.0984402	-0.200686	-0.135886	-0.17136	1.51729	1.5708	0	0	-0.238813	-0.1916	0.120152	0.715484	0.854573	0	0
